<?xml version="1.0" encoding="UTF-8"?>
<svg version="1.1" xmlns="http://www.w3.org/2000/svg" width="992" height="716">
<path d="M0 0 C4.2490626 1.36269365 7.78676604 2.8935575 11.5859375 5.24609375 C13.20387207 6.23971924 13.20387207 6.23971924 14.85449219 7.25341797 C15.42598999 7.60805115 15.99748779 7.96268433 16.58630371 8.32806396 C19.70828028 10.26446498 22.84336208 12.17948999 25.9765625 14.09765625 C26.63301758 14.50024658 27.28947266 14.90283691 27.96582031 15.31762695 C35.18591464 19.73975914 42.46470503 24.06142955 49.75 28.375 C51.09394064 29.17158382 52.43785325 29.96821494 53.78173828 30.76489258 C57.85360894 33.17808781 61.92668982 35.58923558 66 38 C71.41776929 41.20647456 76.83483078 44.41413591 82.25 47.625 C83.24912415 48.21737457 83.24912415 48.21737457 84.26843262 48.82171631 C94.68638748 55.00162868 105.05119452 61.26464234 115.39428711 67.56884766 C125.79122312 73.89938727 136.25350713 80.11805428 146.72851562 86.31835938 C147.992199 87.06638683 149.25587099 87.8144335 150.51953125 88.5625 C151.14098022 88.93034103 151.7624292 89.29818207 152.40270996 89.6771698 C156.75324281 92.25474791 161.09198011 94.85143629 165.42578125 97.45703125 C170.65436565 100.60044844 175.89596119 103.72089087 181.1484375 106.82421875 C181.82571396 107.22472443 182.50299042 107.6252301 183.20079041 108.03787231 C185.95743647 109.6679757 188.7141183 111.29799967 191.47314453 112.92407227 C193.53294985 114.13847813 195.59083087 115.35609221 197.6484375 116.57421875 C198.25489105 116.93061935 198.8613446 117.28701996 199.48617554 117.65422058 C200.68890996 118.36762815 201.88025656 119.10056545 203.05976868 119.85174561 C205.03315982 121.0766838 205.03315982 121.0766838 207.42887878 122.03643799 C210.25831817 123.42983814 211.98409716 124.55767584 214 127 C215.27358913 132.44063548 215.04899585 137.7943034 214.87890625 143.3359375 C214.86210638 144.94158351 214.8493017 146.54727586 214.84031677 148.15298462 C214.80605782 152.36611778 214.71775359 156.57642915 214.61798096 160.78845215 C214.52567813 165.09165267 214.48475939 169.39531226 214.43945312 173.69921875 C214.34311701 182.13410321 214.18965249 190.5667 214 199 C210.18211983 198.14802488 207.34893375 196.6037088 203.96875 194.60546875 C203.38554489 194.26245224 202.80233978 193.91943573 202.20146179 193.56602478 C200.29803879 192.44474114 198.39899681 191.31626083 196.5 190.1875 C195.17119368 189.40246992 193.84217164 188.61780488 192.51293945 187.83349609 C184.6126137 183.16652714 176.73173063 178.46674407 168.87304688 173.72998047 C163.80878485 170.67856876 158.73165933 167.6497951 153.64453125 164.63671875 C152.98873581 164.24826782 152.33294037 163.85981689 151.65727234 163.45959473 C150.29720403 162.65402646 148.93713216 161.84846422 147.57705688 161.04290771 C135.54665269 153.91633249 123.56274122 146.72074568 111.62402344 139.44165039 C101.01997233 132.98363622 90.34467398 126.64725715 79.65625 120.33007812 C79.00505188 119.94478943 78.35385376 119.55950073 77.68292236 119.16253662 C75.92294073 118.1214472 74.16218367 117.08166899 72.40136719 116.04199219 C68.57159224 113.74280774 64.78794543 111.36746589 61 109 C60.67 115.27 60.34 121.54 60 128 C61.65 128.66 63.3 129.32 65 130 C66.96769453 131.07223744 68.91541459 132.1815243 70.84765625 133.31640625 C71.40770859 133.64442734 71.96776093 133.97244843 72.54478455 134.31040955 C74.38624393 135.3907103 76.22445866 136.47639543 78.0625 137.5625 C79.36388979 138.32819724 80.66532281 139.09382101 81.96679688 139.859375 C91.27268032 145.34355795 100.51450412 150.92957901 109.73342896 156.55838013 C118.59973669 161.97033472 127.52604299 167.26865838 136.5 172.5 C147.14206282 178.70483118 157.69965463 185.03379082 168.21459961 191.45141602 C179.01585554 198.03770663 189.89291617 204.49409506 200.7824707 210.93310547 C201.44281311 211.32388779 202.10315552 211.7146701 202.7835083 212.11729431 C204.02054472 212.84918147 205.25802603 213.5803174 206.49603271 214.31056213 C209.04369145 215.81762819 211.53599544 217.35733029 214 219 C214.36914349 221.82296181 214.36914349 221.82296181 214.36076355 225.50454712 C214.36332682 226.18004211 214.3658901 226.8555371 214.36853105 227.55150163 C214.37349124 229.82575201 214.35694011 232.09934546 214.34057617 234.37353516 C214.33973038 235.99942509 214.34020411 237.62531618 214.34190369 239.25120544 C214.34276693 243.67459931 214.32508809 248.09775076 214.30418181 252.52108812 C214.28546973 257.1402162 214.2836689 261.75934939 214.28010559 266.37850952 C214.27076901 275.12978223 214.24613346 283.88094295 214.21605712 292.63216627 C214.18256323 302.59331327 214.16603973 312.55446553 214.15097082 322.5156548 C214.11958527 343.01049912 214.0667935 363.50524252 214 384 C210.11712251 382.49034633 206.64109119 380.72959399 203.046875 378.61328125 C202.47875595 378.27988235 201.9106369 377.94648346 201.32530212 377.60298157 C199.46475896 376.5096938 197.60732437 375.41124569 195.75 374.3125 C194.43866399 373.54002176 193.12722041 372.76772612 191.81567383 371.99560547 C182.73683372 366.64449965 173.69053059 361.23960828 164.66235352 355.8034668 C156.87463106 351.11562221 149.0611976 346.47264495 141.24014282 341.84075928 C129.31643234 334.77846793 117.44071755 327.64485303 105.60742188 320.43212891 C95.20984967 314.10137225 84.74705817 307.88228033 74.27148438 301.68164062 C73.00780037 300.93361425 71.74412836 300.18556759 70.48046875 299.4375 C69.85933701 299.06984024 69.23820526 298.70218048 68.59825134 298.32337952 C64.23839126 295.74023866 59.89014423 293.13826833 55.546875 290.52734375 C50.40811776 287.43828911 45.25829627 284.36876367 40.09765625 281.31640625 C39.10659126 280.72984756 39.10659126 280.72984756 38.09550476 280.13143921 C35.41597658 278.54572942 32.73635388 276.96019097 30.05493164 275.37768555 C29.39291748 274.98685791 28.73090332 274.59603027 28.04882812 274.19335938 C27.05379776 273.60911194 27.05379776 273.60911194 26.03866577 273.01306152 C24.70114618 272.21418842 23.37429877 271.39717507 22.05874634 270.56262207 C18.58445891 268.38035081 15.38739367 266.7227249 11.46826172 265.48046875 C6.46374037 263.65365626 2.68048008 261.77417198 0 257 C-2.57121607 245.78085118 -1.57748646 233.88519728 -1.09863281 222.47332764 C-0.93402908 218.13709902 -0.86169239 213.79939893 -0.78125 209.4609375 C-0.61036908 200.96987137 -0.33788303 192.48605489 0 184 C5.57098705 186.7270929 11.04032892 189.49704099 16.328125 192.75 C18.00406738 193.77552979 18.00406738 193.77552979 19.71386719 194.82177734 C20.57788147 195.35408966 20.57788147 195.35408966 21.45935059 195.89715576 C24.56119085 197.80755019 27.67174745 199.70367501 30.78125 201.6015625 C31.40288025 201.98140289 32.0245105 202.36124329 32.66497803 202.75259399 C37.99842708 206.00824185 43.36442829 209.20629184 48.75 212.375 C50.04284912 213.13635254 50.04284912 213.13635254 51.36181641 213.91308594 C53.20758052 214.99984735 55.05345074 216.08642855 56.89941406 217.17285156 C63.14746836 220.85477585 69.38737969 224.55043191 75.625 228.25 C76.30880737 228.65555115 76.99261475 229.06110229 77.69714355 229.47894287 C88.29336377 235.76680639 98.83828401 242.1341538 109.35888672 248.54760742 C123.49942847 257.15414469 137.75143837 265.57392639 152 274 C153.61253569 263.01759008 153.61253569 263.01759008 149.81005859 253.17871094 C146.56677439 250.9054949 143.23837305 249.09777673 139.6875 247.375 C138.40210468 246.68529473 137.12056522 245.98836011 135.84277344 245.28466797 C133.20617853 243.84201213 130.55500056 242.4349175 127.88623047 241.05273438 C122.02724834 237.99423903 116.40606673 234.53946252 110.75 231.125 C108.51580545 229.80088073 106.28009805 228.47931113 104.04296875 227.16015625 C102.89234692 226.48074741 101.74179454 225.80122095 100.59130859 225.12158203 C99.71463531 224.60377167 99.71463531 224.60377167 98.82025146 224.07550049 C92.89796088 220.57629912 86.97915804 217.07121582 81.0625 213.5625 C80.38755493 213.16226624 79.71260986 212.76203247 79.01721191 212.34967041 C68.51192998 206.11684604 58.05891471 199.802932 47.62890625 193.44506836 C35.0578657 185.79402959 22.39718936 178.29426715 9.73060608 170.80276489 C8.15311636 169.86955892 6.5765298 168.93482672 5 168 C4.12427243 167.60420337 3.24854486 167.20840673 2.3462801 166.80061626 C0 165 0 165 -0.61523914 162.05399036 C-0.61063018 160.839989 -0.60602121 159.62598764 -0.60127258 158.37519836 C-0.60554471 157.69884895 -0.60981683 157.02249954 -0.61421841 156.32565469 C-0.62246968 154.05408068 -0.59493227 151.78434391 -0.56762695 149.51293945 C-0.56621692 147.8869023 -0.56700758 146.26086196 -0.56983948 144.63482666 C-0.57127682 140.21544613 -0.541836 135.79674115 -0.50696969 131.37751794 C-0.47575894 126.76108725 -0.47277963 122.14464187 -0.46684265 117.52812195 C-0.45128863 108.78386981 -0.41023916 100.03992942 -0.3600952 91.29581469 C-0.30425014 81.34192777 -0.27672743 71.38802612 -0.25161803 61.43402159 C-0.19932461 40.95584025 -0.11135212 20.47793974 0 0 Z " fill="#E5BB84" transform="translate(516,0)"/>
<path d="M0 0 C1.7661985 39.84865355 1.70247737 79.77529565 1.91112614 119.65506268 C1.98649086 133.7271561 2.10265802 147.79715933 2.28858025 161.86822941 C2.43400612 172.96806294 2.51730845 184.06729996 2.54608625 195.16807395 C2.5640311 201.37658167 2.60940601 207.58204875 2.72224617 213.78961754 C2.82707551 219.60972553 2.85633097 225.42536718 2.82801628 231.24630356 C2.83081489 233.37576356 2.86090386 235.5053952 2.92074585 237.63401604 C3.33809434 253.27179268 3.33809434 253.27179268 -0.55590749 257.81551194 C-4.34333579 260.98663166 -8.5106661 263.1341892 -13.01789582 265.1018635 C-15.95609107 266.43322661 -18.60759028 268.10278397 -21.34375 269.80859375 C-23.3947256 271.02010641 -25.44684011 272.22969276 -27.5 273.4375 C-29.2401247 274.46540141 -30.98024506 275.4933102 -32.72019958 276.52149963 C-34.55157236 277.6034484 -36.38340795 278.68461 -38.21533203 279.765625 C-44.79394884 283.64854986 -51.36708624 287.54071278 -57.9375 291.4375 C-58.61135742 291.8370993 -59.28521484 292.23669861 -59.97949219 292.64840698 C-70.49315821 298.88618688 -80.95449288 305.20567774 -91.39306641 311.56811523 C-101.79042072 317.89888068 -112.25309849 324.1178124 -122.72851562 330.31835938 C-123.99220009 331.06638498 -125.2558721 331.81443162 -126.51953125 332.5625 C-127.14011917 332.92984253 -127.76070709 333.29718506 -128.40010071 333.67565918 C-132.77605365 336.26836218 -137.14052273 338.87970343 -141.5 341.5 C-146.48385994 344.49558646 -151.47656371 347.47551393 -156.48046875 350.4375 C-157.10385132 350.80657974 -157.72723389 351.17565948 -158.36950684 351.55592346 C-159.65007671 352.31401714 -160.93066573 353.07207846 -162.21127319 353.83010864 C-171.20934269 359.15680683 -180.20016997 364.4925915 -189.125 369.94140625 C-189.7686702 370.33411713 -190.41234039 370.726828 -191.07551575 371.13143921 C-194.13035122 372.9965644 -197.18195509 374.86671864 -200.22924805 376.74414062 C-201.31246338 377.40736328 -202.39567871 378.07058594 -203.51171875 378.75390625 C-204.92650513 379.62511108 -204.92650513 379.62511108 -206.36987305 380.51391602 C-208.86576724 381.92415531 -211.33277188 382.96408733 -214 384 C-214.54551319 365.5200501 -215.04408519 347.04090622 -215.31640625 328.5546875 C-215.32779821 327.79758547 -215.33919018 327.04048344 -215.35092735 326.26043892 C-215.48121765 317.48192581 -215.57529104 308.70386992 -215.62963867 299.92456055 C-215.65243439 296.59682832 -215.67727088 293.26911602 -215.703125 289.94140625 C-215.70901453 289.12673826 -215.71490406 288.31207027 -215.72097206 287.47271538 C-215.80805618 276.71648169 -216.24737396 266.06944019 -217.046875 255.33984375 C-219.1855693 223.66284865 -219.1855693 223.66284865 -213.71484375 216.52392578 C-208.3568244 210.90280086 -201.30987189 207.99074406 -194.13201904 205.38375854 C-186.86096617 202.73389332 -180.52418975 198.79748261 -173.96859741 194.7354126 C-170.95584216 192.88152068 -167.90542569 191.09474751 -164.84765625 189.31640625 C-163.3318396 188.42610718 -163.3318396 188.42610718 -161.78540039 187.51782227 C-159.23128372 186.12603128 -156.70581808 185.05297756 -154 184 C-153.98969254 184.80305573 -153.97938507 185.60611145 -153.96876526 186.4335022 C-153.86961406 194.10852912 -153.76696479 201.78349842 -153.66066074 209.45842934 C-153.60616252 213.40146383 -153.55288431 217.3445059 -153.50268555 221.28759766 C-153.27790866 238.87422807 -152.97928775 256.4353027 -152 274 C-132.33498022 262.39052946 -132.33498022 262.39052946 -112.765625 250.62109375 C-111.70885559 249.98202087 -110.65208618 249.342948 -109.56329346 248.68450928 C-107.30557838 247.31133116 -105.0847384 245.90624331 -102.86676025 244.46737671 C-97.30408148 240.91863762 -92.05372012 237.86764157 -85.79784775 235.71809387 C-76.07319547 232.36154012 -65.62106404 228.10502327 -60 219 C-54.1766099 203.03262053 -57.1808464 183.28264262 -58.26629639 166.70355225 C-58.65702697 160.19807676 -58.86118202 153.68689102 -59.08203125 147.17382812 C-59.54098682 134.43730147 -60.19777877 121.71929106 -61 109 C-82.93057673 121.7916087 -82.93057673 121.7916087 -104.6875 134.875 C-105.83894141 135.57571874 -106.9905572 136.27615102 -108.14233398 136.97631836 C-113.32634021 140.13034818 -118.49802687 143.30307001 -123.6484375 146.51171875 C-124.48930908 147.03330566 -125.33018066 147.55489258 -126.1965332 148.09228516 C-127.72225912 149.04037322 -129.24452063 149.99407049 -130.76245117 150.95458984 C-135.66600637 154 -135.66600637 154 -139 154 C-139.495 118.36 -139.495 118.36 -140 82 C-130.43 76.39 -120.86 70.78 -111 65 C-100.4362485 58.59637594 -100.4362485 58.59637594 -89.8828125 52.17578125 C-79.26131616 45.71514455 -68.54739728 39.41015514 -57.84289551 33.08843994 C-52.45893388 29.90859667 -47.07622022 26.72666159 -41.69650269 23.53964233 C-40.32277585 22.72585707 -38.94885613 21.9123973 -37.57473755 21.09927368 C-27.99284994 15.4265023 -18.47833005 9.66465897 -9.10205078 3.65551758 C-7.94358643 2.9230481 -7.94358643 2.9230481 -6.76171875 2.17578125 C-5.7711145 1.54023315 -5.7711145 1.54023315 -4.76049805 0.8918457 C-3 0 -3 0 0 0 Z " fill="#E5BB84" transform="translate(497,0)"/>
<path d="M0 0 C9.24 0 18.48 0 28 0 C28.84820313 1.75699219 29.69640625 3.51398438 30.5703125 5.32421875 C31.13049072 6.48453613 31.69066895 7.64485352 32.26782227 8.84033203 C33.51852589 11.43104847 34.76898693 14.02188181 36.01928711 16.61279297 C38.98271438 22.75321021 41.94713888 28.89312986 44.91882324 35.02955627 C46.16794515 37.60912272 47.41612473 40.18914464 48.66424561 42.76919556 C49.53908903 44.57663265 50.41527806 46.38341824 51.29150391 48.19018555 C54.62578769 55.08422924 57.8687516 62.01131443 61 69 C63.72137196 65.67003595 65.56595247 62.05805976 67.40625 58.19921875 C67.72760925 57.53420853 68.04896851 56.8691983 68.38006592 56.18403625 C69.42425131 54.02052265 70.46223095 51.85409765 71.5 49.6875 C72.21939112 48.19319784 72.93911991 46.69905819 73.65917969 45.20507812 C75.44730913 41.49230353 77.23023677 37.77705902 79.01147461 34.06097412 C80.45772533 31.0456896 81.90878785 28.03273196 83.359375 25.01953125 C84.32333384 23.01322122 85.28690675 21.00672569 86.25 19 C86.67861328 18.10756592 87.10722656 17.21513184 87.54882812 16.2956543 C87.95037109 15.45558838 88.35191406 14.61552246 88.765625 13.75 C89.10368164 13.04359375 89.44173828 12.3371875 89.79003906 11.609375 C91.57436694 7.76133297 93.27731911 3.87603199 95 0 C104.24 0 113.48 0 123 0 C123 44.22 123 88.44 123 134 C114.09 134 105.18 134 96 134 C95.67 109.58 95.34 85.16 95 60 C87.47353044 75.0925427 87.47353044 75.0925427 79.95141602 90.18725586 C79.01073802 92.07153101 78.06991174 93.95573213 77.12890625 95.83984375 C76.63741089 96.82795044 76.14591553 97.81605713 75.63952637 98.83410645 C74.93926331 100.23481384 74.93926331 100.23481384 74.22485352 101.66381836 C73.61529564 102.88626503 73.61529564 102.88626503 72.99342346 104.13340759 C72 106 72 106 71 107 C69.58429877 107.08651611 68.164405 107.10704904 66.74609375 107.09765625 C65.89208984 107.09443359 65.03808594 107.09121094 64.15820312 107.08789062 C63.26037109 107.07951172 62.36253906 107.07113281 61.4375 107.0625 C60.53580078 107.05798828 59.63410156 107.05347656 58.70507812 107.04882812 C56.46998686 107.03700225 54.23502563 107.0205222 52 107 C43.70094392 91.47273378 35.87828511 75.75657022 28 60 C27.67 84.42 27.34 108.84 27 134 C18.09 134 9.18 134 0 134 C0 89.78 0 45.56 0 0 Z " fill="#371C13" transform="translate(869,439)"/>
<path d="M0 0 C73.41392544 0 73.41392544 0 87.3203125 13.15625 C94.64692872 21.1984892 97.5753167 30.69545387 97.4375 41.4375 C97.42992676 42.26934814 97.42235352 43.10119629 97.41455078 43.95825195 C97.14746622 53.91933643 93.85470087 61.70709907 87 69 C83.27079002 72.23966118 79.46259949 74.87778602 75 77 C76.69402295 82.94838721 79.54372101 88.22563002 82.375 93.69140625 C82.90013184 94.71427231 83.42526367 95.73713837 83.96630859 96.79100037 C85.64019648 100.05024725 87.31969878 103.30655549 89 106.5625 C90.67959582 109.82236845 92.35794073 113.08286449 94.03369141 116.3447113 C95.07523129 118.37155344 96.11908718 120.39720753 97.16552734 122.42152405 C97.87636475 123.80337135 97.87636475 123.80337135 98.6015625 125.21313477 C99.01744629 126.01888443 99.43333008 126.82463409 99.86181641 127.65480042 C101.02431833 130.05010732 102.01117235 132.52793087 103 135 C92.44 135 81.88 135 71 135 C63.18453521 119.45310767 55.47134128 103.88243654 48.03051758 88.15283203 C47.04341038 86.0906877 46.02243042 84.04486085 45 82 C39.06 81.67 33.12 81.34 27 81 C27 98.82 27 116.64 27 135 C18.09 135 9.18 135 0 135 C0 90.45 0 45.9 0 0 Z M27 25 C27 36.22 27 47.44 27 59 C31.08375 59.061875 35.1675 59.12375 39.375 59.1875 C40.64134277 59.21481201 41.90768555 59.24212402 43.21240234 59.27026367 C54.88841241 59.39804494 54.88841241 59.39804494 64.96826172 54.2253418 C69.27567325 49.39484032 70.36109703 46.05447118 70.27734375 39.60546875 C69.83252459 35.42667465 68.55418806 33.36077377 66 30 C60.60623054 25.81707674 56.87391521 24.87394972 50.14453125 24.90234375 C48.32852417 24.90609009 48.32852417 24.90609009 46.47583008 24.90991211 C44.16748169 24.92356812 44.16748169 24.92356812 41.8125 24.9375 C36.924375 24.958125 32.03625 24.97875 27 25 Z " fill="#371C13" transform="translate(210,438)"/>
<path d="M0 0 C29.7 0 59.4 0 90 0 C90 8.25 90 16.5 90 25 C69.21 25 48.42 25 27 25 C27 34.9 27 44.8 27 55 C44.49 55 61.98 55 80 55 C80 62.92 80 70.84 80 79 C62.51 79 45.02 79 27 79 C27 89.56 27 100.12 27 111 C47.79 111 68.58 111 90 111 C90 119.25 90 127.5 90 136 C60.3 136 30.6 136 0 136 C0 91.12 0 46.24 0 0 Z " fill="#371C13" transform="translate(762,438)"/>
<path d="M0 0 C29.7 0 59.4 0 90 0 C90 8.25 90 16.5 90 25 C69.21 25 48.42 25 27 25 C27 34.9 27 44.8 27 55 C44.49 55 61.98 55 80 55 C80 62.92 80 70.84 80 79 C62.51 79 45.02 79 27 79 C27 89.56 27 100.12 27 111 C47.79 111 68.58 111 90 111 C90 119.25 90 127.5 90 136 C60.3 136 30.6 136 0 136 C0 91.12 0 46.24 0 0 Z " fill="#371C13" transform="translate(104,438)"/>
<path d="M0 0 C8.91 0 17.82 0 27 0 C27.01981934 2.61341309 27.03963867 5.22682617 27.06005859 7.91943359 C27.12714317 16.58077489 27.20477961 25.24199886 27.28752708 33.90320396 C27.33734671 39.1514258 27.38367747 44.3996289 27.421875 49.64794922 C27.45890953 54.71847061 27.50531758 59.78882953 27.55806351 64.85921097 C27.57651133 66.78793089 27.59165425 68.7166855 27.60334396 70.64545822 C26.99314531 88.37687376 26.99314531 88.37687376 34 104 C39.67763726 109.24089593 44.66192264 110.42501397 52.21875 110.2421875 C58.2303673 109.71870397 62.29261911 108.14021164 66.375 103.625 C72.03804388 96.28913287 72.14081662 88.06757851 72.20532227 79.12719727 C72.21522186 78.26786087 72.22512146 77.40852448 72.23532104 76.52314758 C72.26671649 73.7042611 72.29160596 70.88535781 72.31640625 68.06640625 C72.33699477 66.1034249 72.35799173 64.14044779 72.37937927 62.17747498 C72.43440395 57.02698213 72.48389919 51.87645058 72.53222656 46.72589111 C72.58258527 41.46371034 72.63819612 36.20158533 72.69335938 30.93945312 C72.80070097 20.62634808 72.90171288 10.31319531 73 0 C81.58 0 90.16 0 99 0 C99.0905717 12.71800781 99.16387215 25.43579942 99.20724869 38.1540575 C99.22807314 44.06042836 99.25629687 49.96656604 99.30175781 55.87280273 C99.34539882 61.57866884 99.36917574 67.28431145 99.37950897 72.99033165 C99.38686762 75.16111453 99.40123698 77.33188596 99.42292023 79.50257301 C99.5881658 96.73946268 97.84033902 109.36688723 85.9375 122.625 C79.36581075 128.89001042 70.06682016 133.83758716 61 135 C60.04867187 135.13148438 59.09734375 135.26296875 58.1171875 135.3984375 C42.27598046 137.11615875 28.30225079 134.01984148 15.61328125 124.328125 C6.17973604 115.92395019 1.46738158 105.38192804 0 93 C-0.13136239 89.88849526 -0.12678284 86.78209926 -0.11352539 83.66821289 C-0.11367142 82.76010864 -0.11381744 81.85200439 -0.1139679 80.91638184 C-0.11327501 77.9351151 -0.10551199 74.95391198 -0.09765625 71.97265625 C-0.09578985 69.89757827 -0.094367 67.82249985 -0.09336853 65.74742126 C-0.08956083 60.30096203 -0.07974553 54.8545297 -0.06866455 49.40808105 C-0.0584128 43.84432336 -0.05386286 38.2805613 -0.04882812 32.71679688 C-0.03812163 21.81118423 -0.02053904 10.90559857 0 0 Z " fill="#371C13" transform="translate(324,439)"/>
<path d="M0 0 C7.26 0 14.52 0 22 0 C25.52044417 8.30070499 28.78092199 16.64871376 31.8515625 25.125 C32.30831816 26.37936358 32.76533134 27.63363342 33.22257996 28.88781738 C34.44125105 32.23252573 35.65662013 35.57842451 36.87128067 38.92459106 C38.14109743 42.42110355 39.41375347 45.91658211 40.6862793 49.41210938 C42.2478233 53.70183963 43.80921388 57.99162492 45.36936951 62.28186035 C48.7884897 71.68255666 52.22277645 81.07757957 55.66796875 90.46875 C56.54673334 92.86587768 57.42547736 95.2630129 58.30419922 97.66015625 C59.54873503 101.0549877 60.79395637 104.44955823 62.04156494 107.84326172 C63.18227948 110.9467801 64.31996928 114.0513919 65.45703125 117.15625 C65.9554377 118.508255 65.9554377 118.508255 66.46391296 119.88757324 C66.7707753 120.72711548 67.07763763 121.56665771 67.39379883 122.43164062 C67.65751785 123.14984985 67.92123688 123.86805908 68.19294739 124.60803223 C69.23754709 127.70404949 70.1023506 130.85822709 71 134 C61.43 134 51.86 134 42 134 C40.845 130.596875 39.69 127.19375 38.5 123.6875 C37.95182617 122.08394653 37.95182617 122.08394653 37.39257812 120.44799805 C37.10833984 119.60277588 36.82410156 118.75755371 36.53125 117.88671875 C36.23798828 117.02264404 35.94472656 116.15856934 35.64257812 115.26831055 C35 113 35 113 35 110 C19.49 110 3.98 110 -12 110 C-12.99 113.63 -13.98 117.26 -15 121 C-15.68501733 123.21567675 -16.388139 125.42602112 -17.125 127.625 C-17.45757813 128.62789062 -17.79015625 129.63078125 -18.1328125 130.6640625 C-19 133 -19 133 -20 134 C-22.07262076 134.08767112 -24.14820294 134.10695873 -26.22265625 134.09765625 C-27.48271484 134.09443359 -28.74277344 134.09121094 -30.04101562 134.08789062 C-31.38151109 134.07953403 -32.72200588 134.07106907 -34.0625 134.0625 C-35.40689942 134.0574866 -36.7513006 134.05292342 -38.09570312 134.04882812 C-41.39717941 134.03699488 -44.69856803 134.02050971 -48 134 C-46.6146028 126.97186376 -44.5067129 120.49347949 -41.984375 113.796875 C-41.58042511 112.7089566 -41.17647522 111.62103821 -40.76028442 110.50015259 C-39.88558354 108.14557444 -39.00834861 105.79193643 -38.12884521 103.43914795 C-36.0050223 97.75678646 -33.89621612 92.06887351 -31.78892136 86.38036728 C-31.29723821 85.0531587 -30.80535667 83.72602359 -30.31328201 82.39896011 C-26.42967969 71.92280817 -22.6049917 61.42634019 -18.8203125 50.9140625 C-18.56923737 50.21676025 -18.31816223 49.51945801 -18.05947876 48.80102539 C-15.60846639 41.99165732 -13.16320115 35.18023514 -10.72175026 28.36743355 C-10.03612586 26.45510607 -9.34963017 24.54309383 -8.66281128 22.63119507 C-7.82587459 20.30068469 -6.99072526 17.96953131 -6.15774536 15.63760376 C-5.59795486 14.07941422 -5.59795486 14.07941422 -5.02685547 12.48974609 C-4.54561722 11.14546036 -4.54561722 11.14546036 -4.05465698 9.77401733 C-2.80117424 6.47703745 -1.38944083 3.24202861 0 0 Z M11 42 C8.85723214 48.06663973 6.72173312 54.13580185 4.59130859 60.20678711 C3.8654492 62.27248226 3.13791745 64.33759054 2.40869141 66.40209961 C1.36182223 69.36680462 0.32095248 72.33355656 -0.71875 75.30078125 C-1.04685669 76.2258699 -1.37496338 77.15095856 -1.7130127 78.1040802 C-2.01332397 78.96474594 -2.31363525 79.82541168 -2.62304688 80.7121582 C-3.02275696 81.84800102 -3.02275696 81.84800102 -3.43054199 83.00679016 C-4.13735376 85.13527039 -4.13735376 85.13527039 -4 88 C6.23 88 16.46 88 27 88 C25.64750019 81.91375084 24.20853151 76.15844883 22.25 70.28125 C21.9912207 69.49729858 21.73244141 68.71334717 21.46582031 67.90563965 C20.92352295 66.26803572 20.37890373 64.63119896 19.83203125 62.99511719 C18.9937792 60.48134489 18.16850187 57.96354185 17.34375 55.4453125 C16.81327868 53.84869941 16.28205616 52.25233566 15.75 50.65625 C15.50411133 49.90218872 15.25822266 49.14812744 15.00488281 48.37121582 C13.93941103 44.45570468 13.93941103 44.45570468 11 42 Z " fill="#371C13" transform="translate(583,439)"/>
<path d="M0 0 C1.11697266 -0.020625 2.23394531 -0.04125 3.38476562 -0.0625 C19.13803873 -0.13555866 31.89193689 4.47414109 43.4375 15.25 C39.87722036 19.5598122 36.16768041 23.70091999 32.3125 27.75 C31.48492188 28.6265625 30.65734375 29.503125 29.8046875 30.40625 C27.4375 32.25 27.4375 32.25 25.390625 32.18359375 C23.27396337 31.17182949 21.30520393 30.05150595 19.3125 28.8125 C10.38696942 23.749822 0.06800742 22.90487315 -9.8125 25.375 C-14.70421925 26.9726066 -16.78943955 28.95622899 -19.5625 33.25 C-21.04978837 37.71186512 -21.27380532 41.55077062 -19.4375 45.9375 C-13.59071 53.148541 -6.2086985 53.46791957 2.5625 54.75 C31.46024364 59.05202549 31.46024364 59.05202549 40.25390625 70.64453125 C47.26739908 81.64642001 48.29114655 94.88187013 45.78515625 107.546875 C42.25651109 118.26911007 35.15106036 125.74851448 25.4375 131.25 C8.46197921 139.65892671 -13.36436059 138.76090572 -31.15625 133.4765625 C-39.92543521 130.31885131 -46.88957097 125.71260749 -53.5625 119.25 C-48.29148586 112.83930713 -42.47121848 107.06409488 -36.5625 101.25 C-34.30246957 102.36925317 -32.06060162 103.51385515 -29.828125 104.6875 C-17.80205915 110.9186222 -4.80172427 114.02743871 8.625 110.0625 C13.03908636 108.24295295 16.2797225 105.89396304 18.25 101.39453125 C19.76929485 96.48530977 19.25250916 93.1218667 17.4375 88.25 C17.1075 87.26 16.7775 86.27 16.4375 85.25 C7.81106465 81.63038815 -1.44116296 80.67583535 -10.63867188 79.3203125 C-22.59569315 77.41421157 -34.38646599 74.34159537 -42.0234375 64.3359375 C-49.08122372 53.7696564 -49.2305069 40.02950936 -46.91015625 27.81640625 C-43.55631965 17.66853157 -36.92346147 10.24251279 -27.5625 5.25 C-18.21387738 0.90309947 -10.23837321 0.04614478 0 0 Z " fill="#371C13" transform="translate(486.5625,437.75)"/>
<path d="M0 0 C8.91 0 17.82 0 27 0 C27 36.3 27 72.6 27 110 C47.13 110 67.26 110 88 110 C88 118.25 88 126.5 88 135 C58.96 135 29.92 135 0 135 C0 90.45 0 45.9 0 0 Z " fill="#371C13" transform="translate(661,439)"/>
<path d="M0 0 C8.91 0 17.82 0 27 0 C27.04527481 12.21375169 27.08193003 24.42744718 27.10362434 36.64126396 C27.11403914 42.31328334 27.12815617 47.98524208 27.15087891 53.65722656 C27.17268955 59.13613604 27.18458594 64.61498736 27.18975449 70.09393692 C27.19343551 72.17899617 27.20062348 74.26405242 27.21146011 76.34908676 C27.22608434 79.28080754 27.22797339 82.21229129 27.22705078 85.14404297 C27.23424133 85.99641037 27.24143188 86.84877777 27.24884033 87.72697449 C27.20177408 101.64642983 23.12402314 113.53664419 13.41015625 123.65625 C3.20089968 133.07278783 -9.47792786 135.86447812 -23 136 C-34.80493628 135.20031077 -45.28156364 132.3630085 -54 124 C-54.69319836 122.68026584 -55.36353517 121.3480114 -56 120 C-53.4370815 117.29237189 -50.84664796 114.6127662 -48.25 111.9375 C-47.52039062 111.16599609 -46.79078125 110.39449219 -46.0390625 109.59960938 C-45.33007812 108.87451172 -44.62109375 108.14941406 -43.890625 107.40234375 C-43.24125977 106.72679443 -42.59189453 106.05124512 -41.92285156 105.35522461 C-40 104 -40 104 -37.94824219 104.16235352 C-35.0556935 105.40600446 -32.59674545 107.2320031 -30 109 C-24.41133024 110.86288992 -17.66953288 110.97413506 -12.125 108.8125 C-7.05794348 105.87360722 -3.59715887 102.72315262 -2 97 C-1.15099416 91.27588757 -0.83609009 85.70297476 -0.79467773 79.921875 C-0.78477814 79.05263901 -0.77487854 78.18340302 -0.76467896 77.28782654 C-0.7333316 74.44191116 -0.70841347 71.59597914 -0.68359375 68.75 C-0.66300105 66.76602773 -0.642004 64.78205961 -0.62062073 62.7980957 C-0.56563912 57.59665309 -0.51612517 52.39517246 -0.46777344 47.19366455 C-0.41738296 41.87777353 -0.36178881 36.56193716 -0.30664062 31.24609375 C-0.19935185 20.83077429 -0.09832418 10.41540795 0 0 Z " fill="#371C13" transform="translate(56,439)"/>
<path d="M0 0 C14 0 14 0 17.91015625 3.90625 C19.0110741 5.74167696 20.05885624 7.60962664 21.0625 9.5 C22.29455541 11.59328168 23.53047079 13.68429463 24.76953125 15.7734375 C25.09359955 16.33634491 25.41766785 16.89925232 25.7515564 17.47921753 C29.80467593 24.50893195 34.33416752 31.2246752 38.82516479 37.97924805 C41.10889131 41.41846026 43.37548917 44.86883943 45.640625 48.3203125 C46.03686569 48.92154938 46.43310638 49.52278625 46.84135437 50.14224243 C48.97490093 53.38995101 50.99891807 56.66486346 53 60 C53.33 40.2 53.66 20.4 54 0 C58.62 0 63.24 0 68 0 C68 29.7 68 59.4 68 90 C54 90 54 90 51.04296875 87.6328125 C50.43066406 86.47523438 49.81835938 85.31765625 49.1875 84.125 C48.40062985 82.74669707 47.60995064 81.37056489 46.81640625 79.99609375 C46.38473145 79.21347168 45.95305664 78.43084961 45.50830078 77.62451172 C42.79100035 72.89628582 39.73029047 68.38799787 36.71914673 63.84344482 C34.97927358 61.21022036 33.26113107 58.5628595 31.5390625 55.91796875 C26.07017377 47.58285521 20.52985913 39.2947887 15 31 C14.67 50.47 14.34 69.94 14 90 C9.38 90 4.76 90 0 90 C0 60.3 0 30.6 0 0 Z " fill="#371C13" transform="translate(665,625)"/>
<path d="M0 0 C8.36928069 6.02093822 13.968599 11.86667981 15.8515625 22.33203125 C16.12503381 25.54079011 16.15581171 28.72999676 16.15234375 31.94921875 C16.15662888 32.84641632 16.160914 33.74361389 16.16532898 34.66799927 C16.17104089 36.55551311 16.17159586 38.44304895 16.16723633 40.33056641 C16.16407895 43.19212034 16.18756609 46.05263616 16.21289062 48.9140625 C16.21516446 50.7591133 16.21586672 52.60416684 16.21484375 54.44921875 C16.2240535 55.29120819 16.23326324 56.13319763 16.24275208 57.0007019 C16.16369731 67.33559497 13.44396028 74.73999228 6.26953125 82.1953125 C-2.50090459 89.94560071 -12.67683471 90.19759951 -23.79443359 89.59716797 C-31.27118941 88.75504426 -37.15903529 84.76021621 -42.2109375 79.39453125 C-48.21729116 71.73679568 -49.30239177 63.90689155 -49.3515625 54.4453125 C-49.35726257 53.58826218 -49.36296265 52.73121185 -49.36883545 51.84819031 C-49.37826047 50.0369082 -49.38480948 48.22560915 -49.38867188 46.41430664 C-49.39834391 43.67107432 -49.42937695 40.92860257 -49.4609375 38.18554688 C-49.53931882 25.43658497 -49.09236684 15.16806608 -40.1484375 5.33203125 C-37.8359375 3.08203125 -37.8359375 3.08203125 -35.1484375 1.33203125 C-34.60574219 0.96078125 -34.06304688 0.58953125 -33.50390625 0.20703125 C-24.60835232 -4.84606447 -8.95833183 -5.05021495 0 0 Z M-32.0859375 17.89453125 C-37.46445041 30.23347262 -37.56073345 53.75008174 -33.0234375 66.33203125 C-30.31618379 70.66363719 -26.74115036 74.03567482 -22.1484375 76.33203125 C-15.6161447 77.10183007 -10.22831393 76.89077845 -4.8046875 72.9453125 C1.6423305 66.66555204 1.84728655 58.18844926 2.01953125 49.6875 C2.03136982 47.63153419 2.03777347 45.57553074 2.0390625 43.51953125 C2.05743164 41.99489258 2.05743164 41.99489258 2.07617188 40.43945312 C2.12661442 26.39135864 2.12661442 26.39135864 -4.1484375 14.33203125 C-9.11952582 10.47690153 -13.152721 9.63730283 -19.42578125 9.87890625 C-24.95040065 10.7983551 -28.74820001 13.48010424 -32.0859375 17.89453125 Z " fill="#371C13" transform="translate(631.1484375,626.66796875)"/>
<path d="M0 0 C4.29 0 8.58 0 13 0 C17.4787938 12.09695995 21.9524154 24.19581746 26.41835022 36.29753113 C28.36923603 41.58390375 30.32135107 46.86981145 32.27734375 52.15429688 C34.04569666 56.93232703 35.80930523 61.71208163 37.56930542 66.49319458 C38.23061818 68.28718196 38.89363945 70.08054047 39.55838013 71.8732605 C40.48223895 74.36569251 41.40006105 76.86026642 42.31640625 79.35546875 C42.59057373 80.09085876 42.86474121 80.82624878 43.1472168 81.58392334 C44.22342181 84.5310653 45 86.83551265 45 90 C40.05 90 35.1 90 30 90 C27.29493443 83.75754099 25.12185289 78.73111735 24 72 C12.45 72 0.9 72 -11 72 C-11.33 73.98 -11.66 75.96 -12 78 C-13.51201576 82.0750064 -15.27062086 86.00912507 -17 90 C-21.95 90 -26.9 90 -32 90 C-30.55122627 82.52244235 -28.19252332 75.62191779 -25.52734375 68.49609375 C-24.86443077 66.70281395 -24.86443077 66.70281395 -24.18812561 64.87330627 C-23.01475032 61.69956794 -21.834357 58.52848527 -20.65246582 55.35791016 C-19.48328025 52.21745816 -18.32116293 49.0744035 -17.15820312 45.93164062 C-11.48128534 30.60520415 -5.75012268 15.29910127 0 0 Z M6 23 C4.28711039 27.94657616 2.57821574 32.89450704 0.87304688 37.84375 C0.29211922 39.52805031 -0.28990808 41.21197176 -0.87304688 42.89550781 C-1.70991158 45.31216812 -2.54284253 47.7301529 -3.375 50.1484375 C-3.63748535 50.9036972 -3.8999707 51.65895691 -4.17041016 52.43710327 C-5.5225728 56.13287612 -5.5225728 56.13287612 -6 60 C2.25 60 10.5 60 19 60 C17.23952375 52.07785688 15.06203245 44.66972652 12.5 37 C12.09652344 35.76121094 11.69304687 34.52242187 11.27734375 33.24609375 C10.69146484 31.48458984 10.69146484 31.48458984 10.09375 29.6875 C9.73990234 28.61886719 9.38605469 27.55023437 9.02148438 26.44921875 C8.25213511 23.85383308 8.25213511 23.85383308 6 23 Z " fill="#371C13" transform="translate(435,625)"/>
<path d="M0 0 C2.1796875 1.109375 2.1796875 1.109375 4.0625 2.25 C4.68382812 2.58515625 5.30515625 2.9203125 5.9453125 3.265625 C8.22948267 4.60425496 9.8091546 5.68868887 10.9140625 8.13671875 C11.0625 10.25 11.0625 10.25 9.76953125 12.20703125 C9.14433594 12.81933594 8.51914062 13.43164062 7.875 14.0625 C7.26269531 14.68769531 6.65039062 15.31289063 6.01953125 15.95703125 C4.0625 17.25 4.0625 17.25 2.04296875 17.07421875 C0.09684346 16.26429284 -1.62855117 15.32902211 -3.4375 14.25 C-9.60859314 11.08947753 -17.17673994 10.32364115 -23.9375 11.9375 C-27.76511665 13.61208229 -30.06431187 15.50362375 -31.9375 19.25 C-32.64659775 25.83674214 -32.64659775 25.83674214 -30.25 31.75 C-26.33935398 34.28663526 -22.50330864 35.46436302 -17.91796875 36.14453125 C-16.97759766 36.29599609 -16.03722656 36.44746094 -15.06835938 36.60351562 C-13.11932045 36.90744671 -11.16877093 37.20185642 -9.21679688 37.48632812 C-1.42835843 38.76756612 4.63039759 41.25520592 9.9375 47.25 C15.07555975 54.50373141 15.09874248 62.66800853 14.0625 71.25 C12.27531914 77.75866333 8.92416479 82.05726586 3.515625 85.99609375 C-3.87632678 89.77446401 -10.63350836 90.72794715 -18.875 90.625 C-19.79990234 90.63660156 -20.72480469 90.64820313 -21.67773438 90.66015625 C-30.02154604 90.62507365 -37.96570349 89.14405751 -44.9375 84.3125 C-45.659375 83.82910156 -46.38125 83.34570312 -47.125 82.84765625 C-49.07902051 81.12525455 -49.94712698 79.63824328 -50.9375 77.25 C-49.70350937 75.88122884 -48.44969377 74.53030834 -47.1875 73.1875 C-46.14335937 72.05634766 -46.14335937 72.05634766 -45.078125 70.90234375 C-42.9375 69.25 -42.9375 69.25 -40.8515625 69.3828125 C-38.9375 70.25 -38.9375 70.25 -36.0625 72.1875 C-28.32780142 77.29240106 -19.84436824 76.97727452 -10.9375 76.25 C-6.75312656 75.15041323 -3.86236011 73.675826 -1.4375 69.9375 C-0.60356735 65.45511202 -0.33582431 61.80727825 -2 57.5 C-6.47755976 52.30025318 -13.42209393 51.63216944 -19.875 50.75 C-29.24564053 49.46243107 -37.33060734 47.47026466 -43.9375 40.25 C-48.15901082 33.35486567 -48.97211858 25.84073709 -47.51171875 17.94921875 C-45.60400859 11.17275136 -41.79789222 5.70081782 -35.80859375 1.8984375 C-25.6570209 -3.29886867 -10.71504248 -4.20359359 0 0 Z " fill="#371C13" transform="translate(322.9375,625.75)"/>
<path d="M0 0 C21.12 0 42.24 0 64 0 C64 4.29 64 8.58 64 13 C55.75 13 47.5 13 39 13 C39 38.41 39 63.82 39 90 C34.38 90 29.76 90 25 90 C25 64.59 25 39.18 25 13 C16.75 13 8.5 13 0 13 C0 8.71 0 4.42 0 0 Z " fill="#371C13" transform="translate(474,625)"/>
<path d="M0 0 C21.12 0 42.24 0 64 0 C64 4.29 64 8.58 64 13 C55.75 13 47.5 13 39 13 C39 38.41 39 63.82 39 90 C34.38 90 29.76 90 25 90 C25 64.59 25 39.18 25 13 C16.75 13 8.5 13 0 13 C0 8.71 0 4.42 0 0 Z " fill="#371C13" transform="translate(344,625)"/>
<path d="M0 0 C4.62 0 9.24 0 14 0 C14 29.7 14 59.4 14 90 C9.38 90 4.76 90 0 90 C0 60.3 0 30.6 0 0 Z " fill="#371C13" transform="translate(551,625)"/>
</svg>
